<?xml version="1.0" standalone="no"?>
<!DOCTYPE svg PUBLIC "-//W3C//DTD SVG 20010904//EN"
 "http://www.w3.org/TR/2001/REC-SVG-20010904/DTD/svg10.dtd">
<svg version="1.0" xmlns="http://www.w3.org/2000/svg"
 width="500.000000pt" height="500.000000pt" viewBox="0 0 500.000000 500.000000"
 preserveAspectRatio="xMidYMid meet">
<metadata>
Created by potrace 1.14, written by Peter Selinger 2001-2017
</metadata>
<g transform="translate(0.000000,500.000000) scale(0.100000,-0.100000)"
fill="#000000" stroke="none">
<path d="M2328 4375 c-2 -1 -28 -5 -58 -8 -84 -7 -180 -28 -180 -39 0 -5 -4
-7 -9 -4 -5 3 -26 -2 -47 -11 -22 -9 -47 -18 -56 -20 -9 -1 -32 -12 -49 -22
-18 -11 -36 -18 -41 -15 -4 3 -8 1 -8 -4 0 -6 -13 -15 -30 -21 -16 -5 -30 -15
-30 -22 0 -7 -3 -10 -6 -6 -15 15 -234 -173 -234 -201 0 -7 -4 -11 -8 -8 -4 2
-19 -12 -32 -32 -14 -20 -35 -48 -47 -62 -22 -23 -28 -42 -23 -65 1 -5 -2 -7
-6 -2 -8 8 -51 -62 -56 -91 -2 -9 -5 -19 -9 -22 -11 -11 -40 -100 -35 -109 4
-5 2 -11 -3 -13 -6 -1 -12 -15 -15 -30 -2 -15 -7 -31 -9 -35 -10 -17 -21 -133
-21 -223 1 -103 9 -184 26 -242 10 -34 15 -38 47 -40 20 0 50 -3 66 -4 69 -8
321 -9 402 -2 111 9 192 18 218 24 11 2 31 6 45 8 62 11 184 38 206 46 13 5
24 7 24 5 0 -8 295 97 394 141 103 46 287 141 296 153 9 12 60 42 60 35 0 -4
9 3 20 16 11 13 20 20 20 16 0 -4 7 -1 15 6 33 30 50 43 55 43 3 0 24 17 46
37 21 21 42 38 45 38 7 0 89 78 89 84 0 2 -9 25 -20 50 -11 26 -20 50 -21 54
-1 4 -10 19 -20 34 -10 14 -19 29 -19 34 0 9 -81 118 -92 122 -4 2 -8 8 -8 13
0 17 -43 58 -54 52 -6 -3 -8 -3 -4 2 4 4 -12 26 -36 49 -64 61 -96 87 -96 78
0 -4 -4 -2 -8 3 -10 15 -66 50 -74 47 -5 -1 -8 2 -8 8 0 5 -7 10 -15 10 -8 0
-15 4 -15 8 0 4 -16 14 -35 21 -19 7 -35 17 -35 23 0 6 -3 9 -6 5 -4 -3 -19 0
-35 9 -16 8 -29 12 -29 8 0 -4 -7 -1 -15 6 -8 7 -15 10 -15 6 0 -4 -12 0 -27
7 -26 13 -119 34 -188 44 -39 5 -183 11 -187 8z"/>
<path d="M4003 4332 c-23 -2 -47 -19 -89 -63 -36 -36 -67 -59 -80 -59 -12 0
-76 11 -144 25 -138 28 -194 32 -188 13 2 -7 57 -42 121 -78 64 -36 117 -71
117 -79 0 -16 -72 -133 -104 -169 -19 -21 -28 -23 -89 -19 -89 5 -106 -12 -41
-42 43 -21 46 -24 40 -52 -6 -31 3 -36 33 -19 16 8 24 1 54 -41 33 -47 36 -49
46 -30 8 14 8 34 1 67 -6 25 -8 55 -5 65 6 19 159 159 174 159 5 0 35 -39 66
-87 32 -49 67 -103 79 -120 11 -18 27 -33 34 -33 22 0 13 61 -28 190 -22 69
-40 131 -40 138 0 7 22 37 49 65 59 64 68 81 67 132 -1 43 -3 44 -73 37z"/>
<path d="M3406 3503 c-33 -77 -186 -328 -215 -353 -3 -3 -28 -32 -55 -65 -73
-88 -222 -234 -336 -328 -64 -53 -217 -161 -305 -215 -55 -34 -106 -66 -112
-72 -7 -6 -13 -8 -13 -4 0 4 -8 0 -17 -8 -25 -20 -287 -147 -408 -197 -55 -23
-108 -46 -117 -51 -10 -6 -24 -10 -31 -10 -28 0 -36 -21 -18 -51 9 -16 19 -29
24 -29 4 0 7 -5 7 -11 0 -9 41 -73 73 -114 4 -5 48 -66 98 -134 75 -104 261
-344 279 -361 3 -3 23 -27 45 -55 49 -61 73 -85 82 -85 12 1 218 256 348 430
63 85 124 166 135 180 11 14 20 30 20 37 0 6 4 13 8 15 10 4 122 176 201 307
131 219 254 486 305 667 43 149 50 198 50 339 0 175 -18 238 -48 168z"/>
<path d="M2300 1070 c0 -11 47 -40 65 -40 37 0 -2 44 -41 46 -13 0 -24 -2 -24
-6z"/>
<path d="M354 998 c-39 -18 -50 -71 -24 -104 7 -8 37 -21 66 -30 33 -9 54 -21
54 -30 0 -19 -44 -18 -64 1 -19 19 -76 20 -76 1 0 -43 69 -76 137 -66 55 8 83
34 83 75 0 39 -12 50 -79 73 -52 18 -67 34 -36 40 9 2 24 -3 33 -11 16 -13 62
-18 71 -7 10 12 -12 48 -35 58 -30 15 -101 14 -130 0z"/>
<path d="M643 1002 c-7 -4 -28 -50 -47 -102 -19 -52 -37 -103 -41 -112 -6 -15
-1 -18 34 -18 30 0 41 4 41 15 0 8 6 15 13 16 66 6 77 4 83 -13 4 -13 16 -18
46 -18 22 0 38 4 36 8 -2 4 -21 58 -43 120 l-40 112 -35 0 c-19 0 -40 -4 -47
-8z m51 -108 c7 -28 -7 -46 -29 -37 -10 3 -10 13 -2 38 11 38 22 38 31 -1z"/>
<path d="M840 890 l0 -120 100 0 100 0 0 30 0 30 -60 0 c-67 0 -63 -6 -62 90
2 79 -4 90 -43 90 l-35 0 0 -120z"/>
<path d="M1134 997 c-2 -7 -21 -59 -42 -117 l-39 -105 34 -3 c24 -2 39 2 47
13 18 25 74 27 89 4 14 -22 92 -28 85 -6 -3 6 -22 60 -42 119 l-38 106 -45 0
c-25 0 -46 -5 -49 -11z m63 -101 c8 -26 8 -36 -2 -39 -21 -9 -33 7 -28 41 7
41 17 41 30 -2z"/>
<path d="M1347 1003 c-3 -5 -4 -59 -4 -120 l0 -113 99 0 98 0 0 30 0 30 -60 0
-60 0 0 90 0 90 -34 0 c-19 0 -37 -3 -39 -7z"/>
<path d="M1635 998 c-3 -7 -22 -60 -43 -118 l-39 -105 33 -3 c22 -2 39 3 51
15 16 16 35 19 86 14 4 -1 7 -8 7 -16 0 -11 11 -15 41 -15 29 0 40 4 37 13 -3
6 -22 60 -43 120 l-38 107 -44 0 c-26 0 -45 -5 -48 -12z m63 -105 c10 -31 10
-33 -14 -33 -27 0 -29 6 -14 46 12 31 13 30 28 -13z"/>
<path d="M1847 1003 c-2 -5 -4 -57 -3 -118 l1 -110 38 -3 37 -3 0 46 0 46 43
-3 c42 -3 42 -3 42 -43 0 -39 1 -40 38 -43 l37 -3 0 121 0 121 -37 -3 c-37 -3
-38 -4 -38 -43 0 -40 0 -40 -43 -43 l-42 -3 0 45 c0 46 0 46 -34 46 -19 0 -37
-3 -39 -7z"/>
<path d="M2249 993 c-4 -58 -4 -200 -1 -210 3 -9 32 -13 102 -13 85 0 98 2
102 18 9 35 -2 42 -69 42 -56 0 -64 2 -61 17 3 15 13 18 56 17 51 -1 53 0 50
25 -3 27 -6 28 -70 30 -27 1 -38 6 -38 16 0 12 14 15 65 15 l65 0 0 30 0 30
-100 0 c-88 0 -100 -2 -101 -17z"/>
<path d="M2647 999 c-28 -11 -41 -40 -35 -80 3 -24 40 -48 103 -66 17 -5 29
-13 28 -18 -4 -17 -49 -17 -63 -1 -7 9 -27 16 -46 16 -28 0 -32 -3 -29 -22 7
-36 31 -51 89 -56 70 -6 114 11 123 47 15 55 -8 84 -78 101 -30 7 -49 17 -49
26 0 18 37 18 54 1 16 -16 68 -16 73 -1 2 6 -5 21 -15 34 -15 18 -31 24 -73
26 -30 2 -66 -1 -82 -7z"/>
<path d="M2847 991 c-7 -28 4 -39 43 -43 l34 -3 2 -80 c0 -44 2 -83 3 -87 0
-5 17 -8 36 -8 l35 0 0 90 0 90 38 0 c35 0 38 2 40 30 l2 30 -114 0 c-103 0
-114 -2 -119 -19z"/>
<path d="M3117 1003 c-12 -20 0 -171 15 -194 34 -52 151 -55 195 -5 20 24 23
37 23 117 l0 90 -37 -3 -38 -3 -1 -65 c-2 -97 -2 -98 -24 -110 -14 -8 -26 -8
-40 0 -18 9 -20 21 -20 95 l0 85 -34 0 c-19 0 -37 -3 -39 -7z"/>
<path d="M3400 890 l0 -120 39 0 c39 0 39 0 38 38 l-2 37 47 3 c37 2 52 9 68
29 27 35 26 78 -5 108 -22 22 -32 25 -105 25 l-80 0 0 -120z m128 38 c-3 -25
-36 -37 -48 -17 -13 20 0 39 27 39 20 0 24 -4 21 -22z"/>
<path d="M3657 1003 c-4 -3 -7 -57 -7 -120 l0 -113 105 0 105 0 0 30 0 30 -64
0 c-36 0 -67 4 -70 9 -11 17 19 28 66 25 45 -2 47 -2 45 24 -3 28 -2 28 -84
31 -13 1 -23 7 -23 16 0 12 14 15 64 15 l65 0 -1 30 -1 30 -97 0 c-53 0 -100
-3 -103 -7z"/>
<path d="M3908 1008 c0 -2 -2 -56 -3 -120 l-2 -118 34 0 c36 0 36 1 35 75 l0
40 52 -57 c42 -48 57 -58 84 -58 l32 0 0 121 0 120 -32 -3 c-32 -3 -33 -5 -38
-57 l-5 -54 -48 56 c-39 45 -55 57 -78 57 -16 0 -30 -1 -31 -2z"/>
<path d="M4190 890 l0 -120 68 0 c108 0 161 39 162 118 0 82 -54 122 -165 122
l-65 0 0 -120z m138 48 c16 -16 16 -80 0 -96 -18 -18 -56 -15 -60 5 -2 9 -1
36 1 60 2 37 6 43 25 43 12 0 27 -5 34 -12z"/>
<path d="M4516 978 c-8 -18 -26 -64 -39 -103 -14 -38 -28 -78 -32 -87 -6 -15
-1 -18 34 -18 30 0 41 4 41 15 0 8 6 16 13 16 40 4 73 -2 83 -15 9 -13 84 -24
84 -13 0 1 -19 54 -43 117 l-42 115 -42 3 c-39 3 -43 1 -57 -30z m68 -80 c6
-33 -6 -50 -29 -41 -10 3 -10 13 -2 39 13 42 23 43 31 2z"/>
</g>
</svg>
